<svg xmlns="http://www.w3.org/2000/svg" viewBox="0 0 141.4 141.6"><defs><style>.a{fill:#ec008c;}</style></defs><rect class="a" x="16.59" y="111.44" width="13.55" height="13.55"/><rect class="a" x="43.68" y="111.44" width="13.55" height="13.55"/><rect class="a" x="111.26" y="111.44" width="13.55" height="13.55"/><rect class="a" x="84.25" y="111.44" width="13.55" height="13.55"/><rect class="a" x="30.14" y="97.89" width="13.55" height="13.55"/><rect class="a" x="97.79" y="97.89" width="13.55" height="13.55"/><path class="a" d="M124.81,70.8H111.26V57.25h13.55V43.71h-27V30.16H84.25V16.62H57.15V30.16H43.61V43.71h-27V57.25H30.14V70.8H16.59V84.35h27V97.89H57.15v13.55h27V97.89h-27V84.35h27V97.89H97.72V84.35h27V70.8Zm-67.66,0H43.61V57.25H57.15Zm40.64,0H84.25V57.25H97.79Z"/></svg>